<svg xmlns="http://www.w3.org/2000/svg" width="64" height="64" viewBox="0 0 64 64" fill="none">
  <path fill-rule="evenodd" clip-rule="evenodd" d="M49.8854 19.448C50.3854 19.9481 50.6662 20.6262 50.6662 21.3333C50.6662 22.0404 50.3854 22.7186 49.8854 23.2187L28.5521 44.552C28.052 45.0519 27.3739 45.3328 26.6668 45.3328C25.9597 45.3328 25.2815 45.0519 24.7814 44.552L14.1148 33.8853C13.629 33.3824 13.3602 32.7088 13.3663 32.0096C13.3724 31.3104 13.6528 30.6416 14.1473 30.1472C14.6417 29.6527 15.3105 29.3723 16.0097 29.3662C16.7089 29.3601 17.3825 29.6289 17.8854 30.1147L26.6668 38.896L46.1148 19.448C46.6149 18.9481 47.293 18.6672 48.0001 18.6672C48.7072 18.6672 49.3854 18.9481 49.8854 19.448Z" fill="#50A7EA"/>
</svg>