<svg xmlns="http://www.w3.org/2000/svg" width="24" height="24" viewBox="0 0 24 24" fill="none">
  <path d="M2.00012 7.73333L5.33343 10.4H18.6667L22 7.73333M6.99997 14.1333H7.01108M16.9999 14.1333H17.011M2 13.2796V18.2933C2 18.8907 2 19.1894 2.1211 19.4176C2.22763 19.6183 2.39761 19.7815 2.60667 19.8837C2.84435 20 3.15549 20 3.77777 20H4.66665C5.28893 20 5.60007 20 5.83774 19.8837C6.04681 19.7815 6.21679 19.6183 6.32331 19.4176C6.44442 19.1894 6.44442 18.8907 6.44442 18.2933V17.8667H17.5555V18.2933C17.5555 18.8907 17.5555 19.1894 17.6766 19.4176C17.7831 19.6183 17.9531 19.7815 18.1621 19.8837C18.3998 20 18.711 20 19.3332 20H20.2221C20.8444 20 21.1555 20 21.3932 19.8837C21.6023 19.7815 21.7723 19.6183 21.8788 19.4176C21.9999 19.1894 21.9999 18.8907 21.9999 18.2933V13.2796C21.9999 12.6044 21.9999 12.2668 21.9461 11.9379C21.8983 11.6459 21.8191 11.3594 21.7096 11.0831C21.5864 10.7719 21.4119 10.4788 21.0629 9.89261L18.5792 5.71985C18.2063 5.09346 18.0199 4.78027 17.758 4.55241C17.5262 4.35082 17.2527 4.19846 16.9554 4.1053C16.6194 4 16.2436 4 15.4921 4H8.50777C7.75628 4 7.38053 4 7.04449 4.1053C6.74718 4.19846 6.47369 4.35082 6.24193 4.55241C5.97998 4.78027 5.79355 5.09346 5.42071 5.71985L2.93693 9.89261C2.58799 10.4788 2.41352 10.7719 2.29025 11.0831C2.1808 11.3594 2.10156 11.6459 2.05379 11.9379C2 12.2668 2 12.6044 2 13.2796ZM7.55552 14.1333C7.55552 14.4279 7.30679 14.6667 6.99997 14.6667C6.69315 14.6667 6.44442 14.4279 6.44442 14.1333C6.44442 13.8388 6.69315 13.6 6.99997 13.6C7.30679 13.6 7.55552 13.8388 7.55552 14.1333ZM17.5555 14.1333C17.5555 14.4279 17.3067 14.6667 16.9999 14.6667C16.6931 14.6667 16.4444 14.4279 16.4444 14.1333C16.4444 13.8388 16.6931 13.6 16.9999 13.6C17.3067 13.6 17.5555 13.8388 17.5555 14.1333Z" stroke="current" stroke-width="2" stroke-linecap="round" stroke-linejoin="round"/>
</svg>