<svg xmlns="http://www.w3.org/2000/svg" width="32" height="32" viewBox="0 0 32 32" fill="none">
  <path fill-rule="evenodd" clip-rule="evenodd" d="M24.9427 9.72388C25.1926 9.97392 25.333 10.313 25.333 10.6665C25.333 11.0201 25.1926 11.3592 24.9427 11.6092L14.276 22.2759C14.026 22.5258 13.6869 22.6663 13.3333 22.6663C12.9798 22.6663 12.6407 22.5258 12.3907 22.2759L7.05733 16.9425C6.81445 16.6911 6.68006 16.3543 6.68309 16.0047C6.68613 15.6551 6.82636 15.3207 7.07357 15.0735C7.32078 14.8262 7.6552 14.686 8.00479 14.683C8.35439 14.6799 8.69119 14.8143 8.94266 15.0572L13.3333 19.4479L23.0573 9.72388C23.3074 9.47392 23.6464 9.3335 24 9.3335C24.3535 9.3335 24.6926 9.47392 24.9427 9.72388Z" fill="white"/>
</svg>