<svg xmlns="http://www.w3.org/2000/svg" width="20" height="20" viewBox="0 0 20 20" fill="none">
  <path fill-rule="evenodd" clip-rule="evenodd" d="M15.5892 6.07748C15.7454 6.23376 15.8332 6.44568 15.8332 6.66665C15.8332 6.88762 15.7454 7.09954 15.5892 7.25582L8.9225 13.9225C8.76623 14.0787 8.55431 14.1665 8.33334 14.1665C8.11237 14.1665 7.90044 14.0787 7.74417 13.9225L4.41084 10.5892C4.25904 10.432 4.17504 10.2215 4.17694 10.003C4.17884 9.78449 4.26648 9.57548 4.42099 9.42097C4.57549 9.26646 4.78451 9.17882 5.003 9.17692C5.2215 9.17502 5.432 9.25902 5.58917 9.41082L8.33334 12.155L14.4108 6.07748C14.5671 5.92126 14.779 5.8335 15 5.8335C15.221 5.8335 15.4329 5.92126 15.5892 6.07748Z" fill="#252C32"/>
</svg>