<svg xmlns="http://www.w3.org/2000/svg" width="24" height="24" viewBox="0 0 24 24" fill="none">
  <path fill-rule="evenodd" clip-rule="evenodd" d="M18.7074 7.29303C18.8949 7.48056 19.0002 7.73487 19.0002 8.00003C19.0002 8.26519 18.8949 8.5195 18.7074 8.70703L10.7074 16.707C10.5199 16.8945 10.2656 16.9998 10.0004 16.9998C9.73524 16.9998 9.48094 16.8945 9.29341 16.707L5.29341 12.707C5.11125 12.5184 5.01045 12.2658 5.01273 12.0036C5.01501 11.7414 5.12018 11.4906 5.30559 11.3052C5.491 11.1198 5.74181 11.0146 6.00401 11.0124C6.2662 11.0101 6.5188 11.1109 6.70741 11.293L10.0004 14.586L17.2934 7.29303C17.4809 7.10556 17.7352 7.00024 18.0004 7.00024C18.2656 7.00024 18.5199 7.10556 18.7074 7.29303Z" fill="white"/>
</svg>