<svg xmlns="http://www.w3.org/2000/svg" width="24" height="24" viewBox="0 0 24 24" fill="none">
  <path d="M15.586 5.58598C15.7705 5.39496 15.9912 5.24259 16.2352 5.13778C16.4792 5.03296 16.7416 4.97779 17.0072 4.97548C17.2728 4.97317 17.5361 5.02377 17.7819 5.12434C18.0277 5.2249 18.251 5.3734 18.4388 5.56119C18.6266 5.74897 18.7751 5.97228 18.8756 6.21807C18.9762 6.46386 19.0268 6.72722 19.0245 6.99278C19.0222 7.25834 18.967 7.52078 18.8622 7.76479C18.7574 8.0088 18.605 8.22949 18.414 8.41398L17.621 9.20698L14.793 6.37898L15.586 5.58598ZM13.379 7.79298L5 16.172V19H7.828L16.208 10.621L13.378 7.79298H13.379Z" fill="white"/>
</svg>