<svg xmlns="http://www.w3.org/2000/svg" width="32" height="32" viewBox="0 0 32 32" fill="none">
  <path fill-rule="evenodd" clip-rule="evenodd" d="M8.39069 8.39069C8.64072 8.14073 8.9798 8.00031 9.33335 8.00031C9.68691 8.00031 10.026 8.14073 10.276 8.39069L16 14.1147L21.724 8.39069C21.847 8.26335 21.9941 8.16177 22.1568 8.09189C22.3195 8.02201 22.4944 7.98523 22.6715 7.98369C22.8485 7.98215 23.0241 8.01589 23.188 8.08293C23.3518 8.14997 23.5007 8.24898 23.6259 8.37417C23.7511 8.49936 23.8501 8.64823 23.9171 8.81209C23.9842 8.97595 24.0179 9.15152 24.0164 9.32856C24.0148 9.5056 23.978 9.68056 23.9082 9.84323C23.8383 10.0059 23.7367 10.153 23.6094 10.276L17.8854 16L23.6094 21.724C23.8522 21.9755 23.9866 22.3123 23.9836 22.6619C23.9805 23.0115 23.8403 23.3459 23.5931 23.5931C23.3459 23.8403 23.0115 23.9806 22.6619 23.9836C22.3123 23.9866 21.9755 23.8522 21.724 23.6094L16 17.8854L10.276 23.6094C10.0246 23.8522 9.68775 23.9866 9.33815 23.9836C8.98856 23.9806 8.65414 23.8403 8.40693 23.5931C8.15972 23.3459 8.01949 23.0115 8.01645 22.6619C8.01342 22.3123 8.14781 21.9755 8.39069 21.724L14.1147 16L8.39069 10.276C8.14073 10.026 8.00031 9.68691 8.00031 9.33336C8.00031 8.97981 8.14073 8.64073 8.39069 8.39069Z" fill="current"/>
</svg>