<svg xmlns="http://www.w3.org/2000/svg" width="36" height="36" viewBox="0 0 36 36" fill="none">
  <path d="M13.5 31.5V20.4C13.5 19.5599 13.5 19.1399 13.6635 18.819C13.8073 18.5368 14.0368 18.3073 14.319 18.1635C14.6399 18 15.0599 18 15.9 18H20.1C20.9401 18 21.3601 18 21.681 18.1635C21.9632 18.3073 22.1927 18.5368 22.3365 18.819C22.5 19.1399 22.5 19.5599 22.5 20.4V31.5M3 14.25L16.56 4.08C17.0764 3.69271 17.3346 3.49906 17.6182 3.42442C17.8685 3.35853 18.1316 3.35853 18.3819 3.42442C18.6654 3.49906 18.9236 3.69271 19.44 4.08L33 14.25M6.00001 12V26.7C6.00001 28.3802 6.00001 29.2202 6.32699 29.862C6.61461 30.4265 7.07355 30.8854 7.63803 31.173C8.27977 31.5 9.11985 31.5 10.8 31.5H25.2C26.8802 31.5 27.7202 31.5 28.362 31.173C28.9265 30.8854 29.3854 30.4265 29.673 29.862C30 29.2202 30 28.3802 30 26.7V12L20.88 5.16C19.8472 4.38542 19.3308 3.99813 18.7637 3.84884C18.2631 3.71706 17.7369 3.71706 17.2363 3.84884C16.6692 3.99813 16.1528 4.38542 15.12 5.16L6.00001 12Z" stroke="#50A7EA" stroke-width="2" stroke-linecap="round" stroke-linejoin="round"/>
</svg>