<svg xmlns="http://www.w3.org/2000/svg" xmlns:xlink="http://www.w3.org/1999/xlink" version="1.1" id="Capa_1" x="0px" y="0px" viewBox="0 0 27.146 27.146" style="enable-background:new 0 0 27.146 27.146; border: none;" xml:space="preserve" width="24px" height="24px">
  <g>
    <g>
      <g>
        <path style="fill:#1AC19D;" d="M9.971,7.095c5.505,0,9.97,3.402,9.97,7.598c0,4.195-4.465,7.597-9.97,7.597     c-0.972,0-1.91-0.106-2.798-0.303C6,24.113,3.872,24.585,1.969,24.107c1.147-0.984,2.137-1.916,2.88-2.896     C1.944,19.885,0,17.461,0,14.693C0,10.497,4.465,7.095,9.971,7.095z"/>
        <path style="fill:#1AC19D;" d="M17.178,2.869c-3.416,0-6.432,1.31-8.229,3.307c4.46-1.197,15.345,3.597,11.236,11.604     c1.174,2.126,3.09,2.578,4.994,2.1c-1.147-0.983-2.138-1.916-2.881-2.896c2.903-1.328,4.848-3.75,4.848-6.519     C27.146,6.271,22.684,2.869,17.178,2.869z"/>
      </g>
    </g>
  </g>
  <g>
  </g>
  <g>
  </g>
  <g>
  </g>
  <g>
  </g>
  <g>
  </g>
  <g>
  </g>
  <g>
  </g>
  <g>
  </g>
  <g>
  </g>
  <g>
  </g>
  <g>
  </g>
  <g>
  </g>
  <g>
  </g>
  <g>
  </g>
</svg>
