<svg xmlns="http://www.w3.org/2000/svg" width="36" height="36" viewBox="0 0 36 36" fill="none">
  <path d="M30.375 21.2249V27.5999C30.375 29.2416 29.1947 30.6539 27.5672 30.8699C24.4372 31.2855 21.2436 31.5 18 31.5C14.7564 31.5 11.5628 31.2855 8.43277 30.8699C6.80535 30.6539 5.625 29.2416 5.625 27.5999V21.2249M30.375 21.2249C31.0829 20.6215 31.5 19.7083 31.5 18.7333V13.0585C31.5 11.4371 30.3481 10.0362 28.7446 9.79629C27.0565 9.54371 25.3493 9.34973 23.625 9.21649M30.375 21.2249C30.0846 21.4724 29.7452 21.6679 29.3657 21.7941C25.793 22.9819 21.9716 23.625 18 23.625C14.0284 23.625 10.207 22.9819 6.63433 21.794C6.25476 21.6679 5.91541 21.4724 5.625 21.2249M5.625 21.2249C4.91712 20.6214 4.5 19.7083 4.5 18.7333V13.0585C4.5 11.4371 5.65186 10.0362 7.25541 9.79629C8.94349 9.54371 10.6507 9.34973 12.375 9.21649M23.625 9.21649V7.875C23.625 6.01104 22.114 4.5 20.25 4.5H15.75C13.886 4.5 12.375 6.01104 12.375 7.875V9.21649M23.625 9.21649C21.7688 9.07305 19.893 9 18 9C16.1071 9 14.2312 9.07305 12.375 9.21649M18 19.125H18.0112V19.1362H18V19.125Z" stroke="#50A7EA" stroke-width="2" stroke-linecap="round" stroke-linejoin="round"/>
</svg>