<svg version="1.1" id="Layer_1" xmlns="http://www.w3.org/2000/svg" xmlns:xlink="http://www.w3.org/1999/xlink" viewBox="0 0 24 24" xml:space="preserve" width="24" height="24"><path style="fill:#E21B1B;" d="M5.696 12.857V12.154c1.145 -0.648 1.547 -2.102 0.899 -3.246s-2.102 -1.547 -3.246 -0.899 -1.547 2.102 -0.899 3.246a2.381 2.381 0 0 0 0.899 0.899v0.703C1.129 12.961 0 14.462 0 15.471v0.828h9.044V15.471c0 -1.009 -1.129 -2.51 -3.348 -2.613"/><g><path style="fill:#999999;" d="M20.652 12.857V12.154c1.145 -0.648 1.547 -2.102 0.899 -3.246 -0.648 -1.145 -2.102 -1.547 -3.246 -0.899 -1.145 0.648 -1.547 2.102 -0.899 3.246a2.381 2.381 0 0 0 0.899 0.899v0.703c-2.22 0.104 -3.348 1.605 -3.348 2.613v0.828H24V15.471c0 -1.009 -1.129 -2.51 -3.348 -2.613"/><path x="106.664" y="76" style="fill:#999999;" width="245.984" height="16" d="M5 3.563H16.53V4.313H5V3.563z"/></g><path style="fill:#E21B1B;" points="405.336,84 346.304,49.92 346.304,118.08 " d="M19 3.938L16.233 2.34L16.233 5.535Z"/><path x="159.352" y="420" style="fill:#999999;" width="245.984" height="16" d="M7.47 19.688H19V20.438H7.47V19.688z"/><path style="fill:#E21B1B;" points="106.664,428 165.696,462.08 165.696,393.92 " d="M5 20.063L7.767 21.66L7.767 18.465Z"/></svg>