<svg xmlns="http://www.w3.org/2000/svg" width="16" height="16" viewBox="0 0 16 16" fill="none">
  <path d="M3.72353 3.72384C3.97358 3.47379 4.31272 3.33331 4.66634 3.33331H8.66634C9.01996 3.33331 9.3591 3.47379 9.60915 3.72384C9.8592 3.97389 9.99967 4.31302 9.99967 4.66665H4.66634V9.99998C4.31272 9.99998 3.97358 9.8595 3.72353 9.60946C3.47348 9.35941 3.33301 9.02027 3.33301 8.66665V4.66665C3.33301 4.31302 3.47348 3.97389 3.72353 3.72384Z" fill="black"/>
  <path d="M6.3902 6.3905C6.14015 6.64055 5.99967 6.97969 5.99967 7.33331V11.3333C5.99967 11.6869 6.14015 12.0261 6.3902 12.2761C6.64025 12.5262 6.97939 12.6666 7.33301 12.6666H11.333C11.6866 12.6666 12.0258 12.5262 12.2758 12.2761C12.5259 12.0261 12.6663 11.6869 12.6663 11.3333V7.33331C12.6663 6.97969 12.5259 6.64055 12.2758 6.3905C12.0258 6.14046 11.6866 5.99998 11.333 5.99998H7.33301C6.97939 5.99998 6.64025 6.14046 6.3902 6.3905Z" fill="black"/>
</svg>