<svg xmlns="http://www.w3.org/2000/svg" width="20" height="20" viewBox="0 0 20 20" fill="none">
  <path d="M6.66667 17.5V11.3333C6.66667 10.8666 6.66667 10.6333 6.75749 10.455C6.83739 10.2982 6.96487 10.1707 7.12167 10.0908C7.29993 10 7.53329 10 8 10H12C12.4667 10 12.7001 10 12.8783 10.0908C13.0351 10.1707 13.1626 10.2982 13.2425 10.455C13.3333 10.6333 13.3333 10.8666 13.3333 11.3333V17.5M5.16667 17.5H14.8333C15.7668 17.5 16.2335 17.5 16.59 17.3183C16.9036 17.1586 17.1586 16.9036 17.3183 16.59C17.5 16.2335 17.5 15.7667 17.5 14.8333V8.80422C17.5 8.32559 17.5 8.08627 17.4383 7.86588C17.4202 7.80114 17.3849 7.71974 17.3459 7.63986C17.3208 7.58843 17.3082 7.56272 17.2589 7.48201C17.2277 7.43104 17.1515 7.32246 17.1141 7.27581C17.055 7.20195 17.011 7.15647 16.9228 7.0655L13.294 3.31962C13.0083 3.02468 12.8654 2.87721 12.6945 2.7989C12.5435 2.72975 12.3777 2.69928 12.212 2.71024C12.0243 2.72266 11.8384 2.80971 11.4665 2.98381L3.85431 6.54722C3.72946 6.60567 3.66704 6.63489 3.60481 6.66962C3.55283 6.69863 3.49261 6.7361 3.4436 6.76991C3.38496 6.81038 3.33905 6.84714 3.24723 6.92067C3.04743 7.08068 2.92365 7.19296 2.82669 7.32405C2.70614 7.48704 2.61633 7.67066 2.56169 7.86588C2.5 8.08627 2.5 8.32559 2.5 8.80422V14.8333C2.5 15.7667 2.5 16.2335 2.68166 16.59C2.84144 16.9036 3.09641 17.1586 3.41002 17.3183C3.76654 17.5 4.23325 17.5 5.16667 17.5Z" stroke="black" stroke-width="2" stroke-linecap="round" stroke-linejoin="round"/>
</svg>