<svg width="18" height="18" viewBox="0 0 18 18" fill="none" xmlns="http://www.w3.org/2000/svg">
    <path fill-rule="evenodd" clip-rule="evenodd" d="M3 0C1.34315 0 0 1.34315 0 3V15C0 16.6569 1.34315 18 3 18H8C9.65685 18 11 16.6569 11 15V13.3636C11 12.8114 10.5523 12.3636 10 12.3636C9.44771 12.3636 9 12.8114 9 13.3636V15C9 15.5523 8.55228 16 8 16H3C2.44772 16 2 15.5523 2 15V3C2 2.44772 2.44772 2 3 2H8C8.55228 2 9 2.44772 9 3V4.63636C9 5.18865 9.44771 5.63636 10 5.63636C10.5523 5.63636 11 5.18865 11 4.63636V3C11 1.34315 9.65685 0 8 0H3ZM14.7071 5.29289C14.3166 4.90237 13.6834 4.90237 13.2929 5.29289C12.9024 5.68342 12.9024 6.31658 13.2929 6.70711L14.5858 8H8C7.44772 8 7 8.44772 7 9C7 9.55228 7.44772 10 8 10H14.5858L13.2929 11.2929C12.9024 11.6834 12.9024 12.3166 13.2929 12.7071C13.6834 13.0976 14.3166 13.0976 14.7071 12.7071L17.7071 9.70711C18.0976 9.31658 18.0976 8.68342 17.7071 8.29289L14.7071 5.29289Z" fill="current" />
</svg>

