<svg fill="#000000" viewBox="0 0 24 24" xmlns="http://www.w3.org/2000/svg" width="24" height="24">
  <g id="SVGRepo_bgCarrier" stroke-width="0"></g>
  <g id="SVGRepo_tracerCarrier" stroke-linecap="round" stroke-linejoin="round"></g>
  <g id="SVGRepo_iconCarrier">
    <path d="m20.37 17.4-2-3.27V9.5A6.54 6.54 0 0 0 15 3.39a3.68 3.68 0 0 0 0-.57A2.91 2.91 0 0 0 12 0a2.91 2.91 0 0 0-3 2.82 2.46 2.46 0 0 0 0 .57 6.54 6.54 0 0 0-3.37 6.14v4.64L3.63 17.4a1.87 1.87 0 0 0 1.59 2.85h2.65A4 4 0 0 0 12 24a4 4 0 0 0 4.13-3.75h2.65a1.87 1.87 0 0 0 1.59-2.85zM10.88 2.82A1.05 1.05 0 0 1 12 1.88a1.05 1.05 0 0 1 1.12.94 9 9 0 0 0-1.12 0 8.86 8.86 0 0 0-1.12 0zM12 22.13a2.16 2.16 0 0 1-2.25-1.88h4.5A2.16 2.16 0 0 1 12 22.13zm-6.78-3.75 2-3.27.27-.46V9.5a6 6 0 0 1 .9-3.18A4 4 0 0 1 12 4.68a4 4 0 0 1 3.6 1.63 6 6 0 0 1 .9 3.18v5.16l.27.46 2 3.27z"></path>
  </g>
</svg>