<svg xmlns="http://www.w3.org/2000/svg" width="36" height="36" viewBox="0 0 36 36" fill="none">
  <path d="M14.8184 11.2783C16.5757 9.74058 19.425 9.74058 21.1823 11.2783C22.9397 12.816 22.9397 15.309 21.1823 16.8467C20.8765 17.1144 20.5375 17.3354 20.177 17.5099C19.0585 18.0512 18.0003 19.0074 18.0003 20.25V21.375M31.5 18C31.5 25.4558 25.4558 31.5 18 31.5C10.5442 31.5 4.5 25.4558 4.5 18C4.5 10.5442 10.5442 4.5 18 4.5C25.4558 4.5 31.5 10.5442 31.5 18ZM18 25.875H18.0113V25.8863H18V25.875Z" stroke="#50A7EA" stroke-width="2" stroke-linecap="round" stroke-linejoin="round"/>
</svg>