<svg xmlns="http://www.w3.org/2000/svg" width="20" height="20" viewBox="0 0 20 20" fill="none">
  <g clip-path="url(#clip0_1951_124)">
    <path d="M9.16667 17.5V12.1667C9.16667 11.7 9.16667 11.4666 9.25749 11.2884C9.33739 11.1316 9.46487 11.0041 9.62167 10.9242C9.79993 10.8334 10.0333 10.8334 10.5 10.8334H12C12.4667 10.8334 12.7001 10.8334 12.8783 10.9242C13.0351 11.0041 13.1626 11.1316 13.2425 11.2884C13.3333 11.4666 13.3333 11.7 13.3333 12.1667V17.5M5.16667 0.833374V5.42595M5.16667 5.42595L3.52949 6.69931C3.15168 6.99316 2.96278 7.14009 2.82669 7.32409C2.70614 7.48708 2.61633 7.67069 2.56169 7.86592C2.5 8.08631 2.5 8.32562 2.5 8.80425V14.8334C2.5 15.7668 2.5 16.2335 2.68166 16.59C2.84144 16.9036 3.09641 17.1586 3.41002 17.3184C3.76654 17.5 4.23325 17.5 5.16667 17.5H14.8333C15.7668 17.5 16.2335 17.5 16.59 17.3184C16.9036 17.1586 17.1586 16.9036 17.3183 16.59C17.5 16.2335 17.5 15.7668 17.5 14.8334V8.80425C17.5 8.32562 17.5 8.08631 17.4383 7.86592C17.3837 7.67069 17.2939 7.48708 17.1733 7.32409C17.0372 7.14009 16.8483 6.99316 16.4705 6.69931L10.8186 2.30337C10.5258 2.07566 10.3794 1.96181 10.2178 1.91804C10.0752 1.87942 9.92484 1.87942 9.78221 1.91804C9.62057 1.96181 9.47418 2.07566 9.18141 2.30337L5.16667 5.42595Z" stroke="black" stroke-width="2" stroke-linecap="round" stroke-linejoin="round"/>
  </g>
  <defs>
    <clipPath id="clip0_1951_124">
      <rect width="20" height="20" fill="white"/>
    </clipPath>
  </defs>
</svg>