<svg xmlns="http://www.w3.org/2000/svg" width="24" height="24" viewBox="0 0 24 24" fill="none">
  <path d="M12.7897 17.8918C12.4982 17.7382 12.1498 17.7381 11.8582 17.8914L7.94562 19.9485C7.21198 20.3342 6.35452 19.7112 6.49465 18.8943L7.24209 14.5371C7.29778 14.2124 7.19003 13.8812 6.954 13.6514L3.78495 10.5667C3.19067 9.98819 3.51828 8.97938 4.33903 8.86043L8.71052 8.22688C9.03638 8.17965 9.31811 7.97504 9.46383 7.67978L11.4203 3.71545C11.7871 2.9722 12.847 2.9722 13.2138 3.71545L15.1703 7.67978C15.316 7.97504 15.5977 8.17965 15.9236 8.22688L20.2951 8.86043C21.1158 8.97938 21.4434 9.98819 20.8492 10.5667L17.6801 13.6514C17.4441 13.8812 17.3363 14.2124 17.392 14.5371L18.1391 18.8919C18.2793 19.7093 17.4209 20.3323 16.6873 19.9457L12.7897 17.8918Z" stroke="#121212" stroke-width="2" stroke-linecap="round" stroke-linejoin="round"/>
</svg>