<svg xmlns="http://www.w3.org/2000/svg" width="24" height="24" viewBox="0 0 24 24" fill="none">
    <path fill-rule="evenodd" clip-rule="evenodd" d="M14.7068 7.293C14.8943 7.48053 14.9996 7.73484 14.9996 8C14.9996 8.26516 14.8943 8.51947 14.7068 8.707L11.4138 12L14.7068 15.293C14.8889 15.4816 14.9897 15.7342 14.9875 15.9964C14.9852 16.2586 14.88 16.5094 14.6946 16.6948C14.5092 16.8802 14.2584 16.9854 13.9962 16.9877C13.734 16.99 13.4814 16.8892 13.2928 16.707L9.29279 12.707C9.10532 12.5195 9 12.2652 9 12C9 11.7348 9.10532 11.4805 9.29279 11.293L13.2928 7.293C13.4803 7.10553 13.7346 7.00021 13.9998 7.00021C14.265 7.00021 14.5193 7.10553 14.7068 7.293Z" fill="current" />
</svg>
