<svg xmlns="http://www.w3.org/2000/svg" width="24" height="24" viewBox="0 0 24 24" fill="none">
    <path fill-rule="evenodd" clip-rule="evenodd" d="M9.29303 16.707C9.10556 16.5195 9.00024 16.2652 9.00024 16C9.00024 15.7348 9.10556 15.4805 9.29303 15.293L12.586 12L9.29303 8.70701C9.11087 8.51841 9.01008 8.26581 9.01236 8.00361C9.01463 7.74141 9.1198 7.4906 9.30521 7.30519C9.49062 7.11978 9.74143 7.01461 10.0036 7.01234C10.2658 7.01006 10.5184 7.11085 10.707 7.29301L14.707 11.293C14.8945 11.4805 14.9998 11.7348 14.9998 12C14.9998 12.2652 14.8945 12.5195 14.707 12.707L10.707 16.707C10.5195 16.8945 10.2652 16.9998 10 16.9998C9.73487 16.9998 9.48056 16.8945 9.29303 16.707Z" fill="current" />
</svg>
